# xmcd CD database file
#
# Track frame offsets:
#	150
#	17991
#	37838
#	54586
#	76807
#	93746
#	108324
#	113451
#	128718
#	142921
#	159133
#
# Disc length: 2352 seconds
#
# Revision: 1
# Processed by: cddbd v1.5.2PL0 Copyright (c) Steve Scherf et al.
# Submitted via: FreeDB 13.8
#
DISCID=7a092e0b
DTITLE=Mike Andersen - Mike Andersen
DYEAR=2012
DGENRE=Blues
TTITLE0=I Wanna Go
TTITLE1=Between Love and Dawn
TTITLE2=Hey Baby
TTITLE3=Run As Fast As You Can
TTITLE4=You Don't Need Me
TTITLE5=Is it All Gonna Be OK
TTITLE6=Interlude
TTITLE7=True Lovers
TTITLE8=Still Drinking
TTITLE9=Something
TTITLE10=Play with Me
EXTD=Nordic 117\nMike Andersen: Vocal, guitar\nJohannes Nørrelykke: Guitar, b
EXTD=acking vocal\nKristian Fogh: Piano, Wurlitzer, Hammond B3, clavinet, Me
EXTD=llotron,\nharmonium, backing vocal\nKristian Kold: Bass, backing vocal\nJ
EXTD=ens Kristian Dam: Drums, percussion\nRecorded by Rasmus Bøgelund at Fee
EXTD=dback recording, Århus, DK,\nSeptember 12-15 and Novenber 26-28, 2011\n\n
EXTT0=
EXTT1=
EXTT2=
EXTT3=
EXTT4=
EXTT5=
EXTT6=
EXTT7=
EXTT8=
EXTT9=
EXTT10=
PLAYORDER=
